<?xml version="1.0" standalone="no"?>
<!DOCTYPE svg PUBLIC "-//W3C//DTD SVG 20010904//EN"
 "http://www.w3.org/TR/2001/REC-SVG-20010904/DTD/svg10.dtd">
<svg version="1.0" xmlns="http://www.w3.org/2000/svg"
 width="340.000000pt" height="340.000000pt" viewBox="0 0 340.000000 340.000000"
 preserveAspectRatio="xMidYMid meet">
<metadata>
Created by potrace 1.14, written by Peter Selinger 2001-2017
</metadata>
<g transform="translate(0.000000,340.000000) scale(0.100000,-0.100000)"
fill="#000000" stroke="none">
<path d="M255 2997 l0 -282 -84 -1 c-46 -1 -86 -6 -90 -12 -3 -6 -6 -115 -5
-244 l0 -233 83 -1 c45 -1 85 -5 89 -9 4 -4 7 -401 8 -883 0 -482 4 -897 8
-922 24 -142 93 -239 198 -278 59 -22 189 -40 261 -36 147 8 320 34 336 50 3
3 6 103 6 222 l1 217 -59 -3 c-87 -5 -105 2 -116 46 -5 22 -9 356 -9 815 l0
777 88 0 c76 0 89 2 93 18 4 15 2 420 -2 462 -1 12 -18 15 -88 15 l-88 0 -2
250 c-1 138 -2 265 -2 283 l-1 32 -312 0 -313 0 0 -283z"/>
<path d="M2490 2995 l0 -284 -72 0 c-40 0 -81 0 -90 0 -17 -1 -18 -20 -18
-245 l0 -243 87 -2 c48 -1 89 -3 90 -5 2 -1 3 -398 3 -882 1 -548 5 -899 11
-933 33 -176 115 -261 279 -291 96 -17 279 -15 380 5 43 8 134 25 137 25 2 0
3 100 3 223 l0 222 -74 -3 c-120 -6 -110 -86 -110 840 -1 434 2 792 5 794 4 2
46 5 93 6 l86 1 0 244 c0 224 -1 243 -17 244 -10 1 -50 1 -89 0 -60 0 -72 3
-76 17 -2 9 -3 137 -2 285 l0 267 -313 0 -313 0 0 -285z"/>
<path d="M1710 572 c-62 -31 -80 -46 -113 -97 -29 -45 -32 -56 -32 -130 0 -88
14 -125 66 -176 48 -47 101 -69 171 -70 73 -2 119 15 172 61 101 89 110 255
18 354 -65 69 -202 98 -282 58z"/>
</g>
</svg>
