 <svg  version="1.0" xmlns="http://www.w3.org/2000/svg"  width="80pt" height="80pt" viewBox="0 0 250.000000 250.000000"  preserveAspectRatio="xMidYMid meet">  <g transform="translate(0.000000,250.000000) scale(0.050000,-0.050000)" fill="#07fa86" stroke="none"> <path d="M140 3170 l0 -170 940 0 940 0 0 170 0 170 -940 0 -940 0 0 -170z"/> <path d="M2980 3170 l0 -170 940 0 940 0 0 170 0 170 -940 0 -940 0 0 -170z"/> <path d="M880 2170 l0 -650 200 0 200 0 0 650 0 650 -200 0 -200 0 0 -650z m215 -184 c-4 -119 -7 -27 -7 204 0 231 3 328 7 216 3 -112 3 -301 0 -420z"/> <path d="M3730 2170 l0 -650 195 0 195 0 0 650 0 650 -195 0 -195 0 0 -650z"/> <path d="M2311 1884 c-6 -6 -11 -90 -11 -187 l0 -177 200 0 200 0 0 187 0 188 -189 0 c-105 0 -195 -5 -200 -11z"/> </g> </svg> 